Coordinates
version=1
nRows=12
nColumns=34
inDegrees=yes

Units are S.I. units (second, meters, Newtons, ...)
If the header above contains a line with 'inDegrees', this indicates whether rotational values are in degrees (yes) or radians (no).

endheader
time	pelvis_tilt	pelvis_list	pelvis_rotation	pelvis_tx	pelvis_ty	pelvis_tz	hip_flexion_r	hip_adduction_r	hip_rotation_r	knee_angle_r	ankle_angle_r	subtalar_angle_r	mtp_angle_r	hip_flexion_l	hip_adduction_l	hip_rotation_l	knee_angle_l	ankle_angle_l	subtalar_angle_l	mtp_angle_l	lumbar_extension	lumbar_bending	lumbar_rotation	arm_flex_r	arm_add_r	arm_rot_r	elbow_flex_r	pro_sup_r	arm_flex_l	arm_add_l	arm_rot_l	elbow_flex_l	pro_sup_l
      1.21666670	     -0.67660501	      0.53388815	     -2.74767864	     -0.01296669	      1.23641964	     -0.09436047	     -5.26879753	      0.91083429	     -3.16695300	      0.00000000	     10.54572127	      6.22672662	      0.00000000	     -5.96036899	      0.90288948	     -5.23965291	      0.00000000	      4.71967711	      3.83208400	      0.00000000	     -7.85766650	      0.15823743	      3.42277237	     11.31665662	    -11.83278345	     82.67944979	     13.72838481	     42.58477240	     10.41183315	    -14.34941829	     68.56975848	     21.69199616	     41.96305430
      1.23333330	     -0.79029396	      0.53385661	     -2.62613654	     -0.01469211	      1.23391525	     -0.09533025	     -5.10384547	      0.91695844	     -3.11242981	      0.00000000	     11.36431747	      6.25921508	      0.00000000	     -5.86028186	      0.89381594	     -5.10012320	      0.00000000	      5.14247726	      3.79977216	      0.00000000	     -7.85842839	      0.18490858	      3.16065249	     11.22661119	    -11.72546238	     82.72111141	     13.57692615	     42.34711910	     10.58404101	    -14.33464010	     68.41663459	     21.55257335	     41.88708685
      1.25000000	     -0.85205510	      0.53999383	     -2.62396858	     -0.01281703	      1.23487848	     -0.09402866	     -5.14378973	      0.91664215	     -3.11071408	      0.00000000	     11.36161771	      6.26227811	      0.00000000	     -5.87184160	      0.89544253	     -5.09625493	      0.00000000	      5.14262296	      3.80140157	      0.00000000	     -7.86262621	      0.19134832	      3.15618581	     11.22907627	    -11.72485689	     82.72143143	     13.57553632	     42.34438179	     10.59131326	    -14.33167051	     68.41447842	     21.55276305	     41.88629474
      1.26666670	     -0.94762587	      0.54241553	     -2.64239366	     -0.01213253	      1.23609721	     -0.09403760	     -5.20866330	      0.92727122	     -3.11340906	      0.00000000	     11.35779194	      6.26355609	      0.00000000	     -5.88970775	      0.90657923	     -5.09118022	      0.00000000	      5.14426643	      3.80388627	      0.00000000	     -7.86451665	      0.19766949	      3.14825766	     11.23129062	    -11.72013904	     82.72186708	     13.57538851	     42.34146872	     10.60520859	    -14.32995974	     68.41140791	     21.55309770	     41.88542708
      1.28333330	     -0.99723620	      0.54857454	     -2.74995979	     -0.00951425	      1.24216987	     -0.09365839	     -5.21721324	      0.96521169	     -3.11451301	      0.00000000	     11.32723648	      6.28857253	      0.00000000	     -5.94071278	      0.89833700	     -5.04617908	      0.00000000	      5.13652806	      3.83195807	      0.00000000	     -7.87046938	      0.22570248	      3.07304921	     11.17829759	    -11.67379259	     82.73211641	     13.57863834	     42.32111292	     10.66947323	    -14.30338339	     68.39264917	     21.55619196	     41.87927164
      1.30000000	     -1.06021284	      0.56071104	     -2.76345621	     -0.00907837	      1.24155418	     -0.09353775	     -5.26926638	      0.98466921	     -3.11375441	      0.00000000	     11.31808239	      6.29383389	      0.00000000	     -5.94650898	      0.90185682	     -5.04139829	      0.00000000	      5.13249066	      3.83611850	      0.00000000	     -7.87756626	      0.22843288	      3.06477987	     11.17340760	    -11.66731493	     82.73342492	     13.57872845	     42.31821861	     10.67747424	    -14.29958294	     68.39011828	     21.55621945	     41.87841186
      1.31666670	     -1.11426733	      0.55185137	     -2.87170873	     -0.00859373	      1.24310356	     -0.09254619	     -5.24620163	      1.03878140	     -3.10524919	      0.00000000	     11.22669789	      6.35002570	      0.00000000	     -5.94441804	      0.87230074	     -5.01912329	      0.00000000	      5.08855926	      3.87000003	      0.00000000	     -7.96102587	      0.24222501	      2.96143487	     11.08567863	    -11.59114193	     82.74989477	     13.58379841	     42.29272964	     10.75155872	    -14.25984053	     68.36725576	     21.55585500	     41.87102285
      1.33333330	     -1.16239223	      0.56771065	     -2.87184705	     -0.00674702	      1.24125339	     -0.09267848	     -5.27458977	      1.05995476	     -3.10243724	      0.00000000	     11.21392792	      6.35739908	      0.00000000	     -5.95105815	      0.87369900	     -5.02014535	      0.00000000	      5.08316239	      3.87225464	      0.00000000	     -7.97594242	      0.24403251	      2.95807293	     11.08858100	    -11.58473866	     82.75064309	     13.58305187	     42.28987893	     10.75964186	    -14.25724765	     68.36471188	     21.55493745	     41.87022703
      1.35000000	     -1.31399412	      0.55525996	     -2.87695383	     -0.00720631	      1.23730553	     -0.09353743	     -5.19233109	      1.07395605	     -3.16857399	      0.00000000	     10.99921997	      6.43534384	      0.00000000	     -5.85741365	      0.85788001	     -5.11423746	      0.00000000	      5.03677531	      3.87465643	      0.00000000	     -8.20186438	      0.34927514	      2.85072523	     11.08999336	    -11.49691653	     82.76919977	     13.55958213	     42.23441461	     10.92707310	    -14.20091441	     68.31669526	     21.54976844	     41.85709853
      1.36666670	     -1.38430018	      0.55017425	     -2.87660877	     -0.00679101	      1.23572159	     -0.09306789	     -5.21537405	      1.06547780	     -3.18184014	      0.00000000	     10.99276492	      6.43378326	      0.00000000	     -5.88904930	      0.85208654	     -5.11965795	      0.00000000	      5.03685893	      3.87343190	      0.00000000	     -8.20936129	      0.35125604	      2.85499373	     11.10880186	    -11.50078146	     82.76853949	     13.55396650	     42.23021625	     10.93474972	    -14.19892989	     68.31379209	     21.54917319	     41.85630014
      1.38333330	     -1.54373082	      0.51821356	     -2.95740129	     -0.00635615	      1.23243518	     -0.09297686	     -5.06775079	      1.09198241	     -3.51977478	      0.00000000	     10.97325288	      6.36079851	      0.00000000	     -5.80600636	      0.83747590	     -5.26227906	      0.00000000	      5.18335644	      3.80354626	      0.00000000	     -8.39680729	      0.48441220	      2.92539752	     11.41667740	    -11.57046806	     82.76837147	     13.44247558	     42.12925170	     11.08543541	    -14.16525787	     68.24793071	     21.55127074	     41.83987512
      1.40000000	     -1.65754308	      0.53032440	     -2.96242907	     -0.00120596	      1.23652102	     -0.09147506	     -5.10024121	      1.09033391	     -3.52506635	      0.00000000	     10.96997750	      6.36048016	      0.00000000	     -5.85553962	      0.82811843	     -5.26132652	      0.00000000	      5.18373955	      3.80339421	      0.00000000	     -8.41255097	      0.49147069	      2.91992227	     11.41642517	    -11.57079248	     82.76927924	     13.44072535	     42.12651509	     11.09196044	    -14.16058563	     68.24603771	     21.55276319	     41.83948121
